<svg width="302" height="114" viewBox="0 0 302 114" fill="none" xmlns="http://www.w3.org/2000/svg">
<path d="M34.9643 2.31593L34.9643 87.2251H22.9557L22.9557 16.2653L8.39987 32.0341L0.879345 24.5136L22.1066 2.31593L34.9643 2.31593ZM87.9084 89.4085C67.2876 89.4085 53.5808 71.5776 53.5808 44.7705C53.5808 17.9635 67.2876 0.132549 87.9084 0.132549C108.408 0.132549 122.115 17.9635 122.115 44.7705C122.115 71.5776 108.408 89.4085 87.9084 89.4085ZM87.9084 78.9768C101.251 78.9768 110.106 65.27 110.106 44.7705C110.106 24.271 101.251 10.5642 87.9084 10.5642C74.5655 10.5642 65.5894 24.271 65.5894 44.7705C65.5894 65.27 74.5655 78.9768 87.9084 78.9768ZM182.092 55.6874C170.811 38.5843 166.323 34.4601 159.531 34.4601C150.191 34.4601 143.277 43.5575 143.277 55.6874C143.277 67.696 150.191 76.5508 159.531 76.5508C166.202 76.5508 171.054 71.8201 182.092 55.6874ZM144.975 91.9558C148.371 100.325 154.072 103.964 162.806 103.964C174.936 103.964 181.486 95.3521 181.486 81.7667V70.7285H178.575C170.448 82.6157 164.625 86.7399 156.983 86.7399C141.942 86.7399 131.753 74.1248 131.753 55.6874C131.753 37.1287 142.064 24.3923 156.983 24.3923C164.625 24.3923 170.569 28.6378 178.938 41.2528H181.486V26.5757L193.13 26.5757V81.7667C193.13 101.538 181.607 113.668 163.533 113.668C146.916 113.668 137.576 106.512 133.694 95.1095L144.975 91.9558ZM206.668 26.5757L218.313 26.5757V40.0399H220.739C228.381 28.6378 234.082 24.3923 242.816 24.3923C251.913 24.3923 257.735 29.9721 259.312 40.0399H262.223C269.865 28.6378 275.687 24.3923 284.3 24.3923C295.217 24.3923 301.403 32.2767 301.403 46.2261V87.2251H289.758V49.6225C289.758 39.5547 286.24 34.9453 279.326 34.9453C272.655 34.9453 267.075 40.6464 259.797 54.1105V87.2251H248.274V49.6225C248.274 39.5547 244.756 34.9453 237.721 34.9453C231.171 34.9453 225.591 40.6464 218.313 54.1105V87.2251H206.668V26.5757Z" fill="url(#paint0_linear_321_157)"/>
<defs>
<linearGradient id="paint0_linear_321_157" x1="-276.93" y1="56.7251" x2="307.395" y2="56.7251" gradientUnits="userSpaceOnUse">
<stop stop-color="#8EEBE1" stop-opacity="0"/>
<stop offset="1" stop-color="#529B93"/>
</linearGradient>
</defs>
</svg>
