<svg width="223" height="112" viewBox="0 0 223 112" fill="none" xmlns="http://www.w3.org/2000/svg">
<path d="M34.3842 0.521006L34.3842 85.4302H22.3757L22.3757 14.4704L7.81979 30.2392L0.299267 22.7187L21.5266 0.521006L34.3842 0.521006ZM102.976 53.8925C91.6951 36.7894 87.207 32.6652 80.4143 32.6652C71.0743 32.6652 64.1602 41.7626 64.1602 53.8925C64.1602 65.9011 71.0743 74.7559 80.4143 74.7559C87.0857 74.7559 91.9377 70.0252 102.976 53.8925ZM65.8584 90.1608C69.2548 98.5304 74.9558 102.169 83.6894 102.169C95.8192 102.169 102.369 93.5572 102.369 79.9717V68.9335H99.4582C91.3312 80.8208 85.5088 84.945 77.867 84.945C62.826 84.945 52.6369 72.3299 52.6369 53.8925C52.6369 35.3338 62.9473 22.5974 77.867 22.5974C85.5088 22.5974 91.4525 26.8429 99.8221 39.4579H102.369V24.7808H114.014L114.014 79.9717C114.014 99.7434 102.491 111.873 84.4171 111.873C67.7992 111.873 58.4592 104.717 54.5776 93.3146L65.8584 90.1608ZM127.552 24.7808H139.197V38.2449L141.623 38.2449C149.265 26.8429 154.966 22.5974 163.699 22.5974C172.797 22.5974 178.619 28.1771 180.196 38.2449H183.107C190.749 26.8429 196.571 22.5974 205.183 22.5974C216.1 22.5974 222.287 30.4818 222.287 44.4312V85.4302H210.642V47.8275C210.642 37.7597 207.124 33.1504 200.21 33.1504C193.539 33.1504 187.959 38.8514 180.681 52.3156V85.4302H169.158V47.8275C169.158 37.7597 165.64 33.1504 158.605 33.1504C152.055 33.1504 146.475 38.8514 139.197 52.3156V85.4302H127.552V24.7808Z" fill="url(#paint0_linear_321_155)"/>
<defs>
<linearGradient id="paint0_linear_321_155" x1="243.534" y1="54.9302" x2="20.2471" y2="54.9302" gradientUnits="userSpaceOnUse">
<stop stop-color="#FF651D" stop-opacity="0"/>
<stop offset="1" stop-color="#FF651D"/>
</linearGradient>
</defs>
</svg>
