<svg width="23" height="23" viewBox="0 0 23 23" fill="none" xmlns="http://www.w3.org/2000/svg">
<path d="M21.5315 22.9791C18.9722 22.9791 16.4436 22.4214 13.9457 21.306C11.4478 20.1905 9.17518 18.6087 7.12773 16.5604C5.08029 14.5121 3.49884 12.2395 2.38339 9.74239C1.26794 7.24532 0.709803 4.71672 0.708984 2.15659C0.708984 1.78805 0.831831 1.48093 1.07752 1.23524C1.32322 0.989546 1.63034 0.866699 1.99888 0.866699H6.97417C7.26082 0.866699 7.51675 0.964158 7.74197 1.15907C7.96719 1.35399 8.10027 1.58412 8.14122 1.84947L8.93972 6.14911C8.98067 6.47671 8.97044 6.75311 8.90901 6.97833C8.84759 7.20355 8.73498 7.39806 8.57118 7.56185L5.59215 10.5716C6.00164 11.3292 6.4877 12.0609 7.05034 12.7669C7.61298 13.4728 8.23254 14.1538 8.90901 14.8098C9.54372 15.4445 10.2091 16.0334 10.9053 16.5764C11.6014 17.1193 12.3385 17.6156 13.1165 18.0653L16.0034 15.1784C16.1877 14.9941 16.4285 14.8561 16.7258 14.7644C17.023 14.6726 17.3146 14.6468 17.6004 14.687L21.8386 15.5469C22.1253 15.6288 22.3607 15.7774 22.545 15.9928C22.7293 16.2082 22.8214 16.4486 22.8214 16.7139V21.6892C22.8214 22.0578 22.6986 22.3649 22.4529 22.6106C22.2072 22.8563 21.9001 22.9791 21.5315 22.9791Z" fill="white"/>
</svg>
