<svg width="23" height="24" viewBox="0 0 23 24" fill="none" xmlns="http://www.w3.org/2000/svg">
<path d="M21.5315 23.0436C18.9722 23.0436 16.4436 22.4859 13.9457 21.3704C11.4478 20.255 9.17518 18.6731 7.12773 16.6248C5.08029 14.5766 3.49884 12.3039 2.38339 9.80684C1.26794 7.30977 0.709803 4.78117 0.708984 2.22104C0.708984 1.8525 0.831831 1.54539 1.07752 1.29969C1.32322 1.054 1.63034 0.931152 1.99888 0.931152H6.97417C7.26082 0.931152 7.51675 1.02861 7.74197 1.22353C7.96719 1.41844 8.10027 1.64858 8.14122 1.91393L8.93972 6.21357C8.98067 6.54116 8.97044 6.81756 8.90901 7.04278C8.84759 7.268 8.73498 7.46251 8.57118 7.62631L5.59215 10.6361C6.00164 11.3936 6.4877 12.1254 7.05034 12.8313C7.61298 13.5373 8.23254 14.2183 8.90901 14.8743C9.54372 15.509 10.2091 16.0978 10.9053 16.6408C11.6014 17.1838 12.3385 17.6801 13.1165 18.1297L16.0034 15.2428C16.1877 15.0585 16.4285 14.9205 16.7258 14.8288C17.023 14.7371 17.3146 14.7113 17.6004 14.7514L21.8386 15.6114C22.1253 15.6933 22.3607 15.8419 22.545 16.0573C22.7293 16.2727 22.8214 16.513 22.8214 16.7784V21.7537C22.8214 22.1222 22.6986 22.4294 22.4529 22.675C22.2072 22.9207 21.9001 23.0436 21.5315 23.0436Z" fill="black"/>
</svg>
