<svg width="357" height="37" viewBox="0 0 357 37" fill="none" xmlns="http://www.w3.org/2000/svg">
<path fill-rule="evenodd" clip-rule="evenodd" d="M55.8342 26.3352H72.4487V23.2271H59.7852V2.45817H55.8342V26.3352ZM81.1549 5.37717H84.0157C84.8916 5.37717 85.7751 5.38934 86.6512 5.43978C87.1941 5.47157 87.7876 5.51457 88.3194 5.632C89.3029 5.84854 90.2084 6.26508 90.9458 6.96206C91.7153 7.68841 92.2131 8.64669 92.5417 9.64148C93.0079 11.0536 93.0857 12.8327 93.0857 14.3108C93.0857 15.8517 92.9965 17.6168 92.545 19.098C92.255 20.052 91.8032 21.1071 91.0483 21.7883C90.3932 22.3818 89.6007 22.7544 88.748 22.9689C88.3172 23.0788 87.8533 23.1304 87.4106 23.1645C86.7863 23.2139 86.1555 23.2271 85.5304 23.2271H81.1549V5.37717ZM77.2042 2.25266V26.3352H86.217C87.6038 26.3352 89.2237 26.2526 90.5526 25.8294C91.7745 25.4395 92.9792 24.8525 93.9078 23.9502C95.1134 22.7788 95.9233 21.2972 96.4661 19.718C97.0299 18.075 97.2091 16.2639 97.2091 14.5351C97.2091 12.6273 97.0342 10.5722 96.4146 8.75763C95.9212 7.31468 95.1848 5.98933 94.1318 4.87938C93.1427 3.83771 91.9605 3.11559 90.5823 2.71122C89.9645 2.53085 89.2985 2.43304 88.6602 2.36913C87.7598 2.27911 86.8468 2.25266 85.9422 2.25266H77.2042ZM116.394 5.37717H119.255C120.131 5.37717 121.013 5.38934 121.889 5.43978C122.432 5.47157 123.026 5.51457 123.559 5.632C124.542 5.84854 125.447 6.26508 126.184 6.96206C126.953 7.68841 127.452 8.64669 127.78 9.64148C128.246 11.0536 128.325 12.8327 128.325 14.3108C128.325 15.8517 128.235 17.6168 127.784 19.098C127.494 20.051 127.041 21.1071 126.287 21.7883C125.632 22.3818 124.84 22.7544 123.987 22.9689C123.556 23.0788 123.093 23.1304 122.649 23.1645C122.024 23.2139 121.395 23.2271 120.768 23.2271H116.394V5.37717ZM112.443 2.25266V26.3352H121.456C122.842 26.3352 124.463 26.2526 125.792 25.8294C127.014 25.4395 128.217 24.8525 129.146 23.9502C130.351 22.7788 131.161 21.2972 131.706 19.718C132.268 18.075 132.447 16.2639 132.447 14.5351C132.447 12.6273 132.273 10.5722 131.654 8.75763C131.16 7.31468 130.424 5.98933 129.371 4.87938C128.382 3.83771 127.2 3.11559 125.82 2.71122C125.204 2.53085 124.538 2.43304 123.898 2.36913C122.999 2.27911 122.086 2.25266 121.18 2.25266H112.443ZM167.291 5.37717H170.15C171.028 5.37717 171.91 5.38934 172.786 5.43978C173.33 5.47157 173.922 5.51457 174.454 5.632C175.439 5.84854 176.344 6.26508 177.082 6.96206C177.85 7.68841 178.349 8.64669 178.676 9.64148C179.142 11.0536 179.222 12.8327 179.222 14.3108C179.222 15.8517 179.133 17.6168 178.681 19.098C178.39 20.052 177.938 21.1061 177.183 21.7883C176.529 22.3818 175.736 22.7544 174.884 22.9689C174.453 23.0788 173.988 23.1304 173.546 23.1645C172.922 23.2139 172.29 23.2271 171.665 23.2271H167.291V5.37717ZM163.34 2.25266V26.3352H172.353C173.739 26.3352 175.359 26.2526 176.687 25.8294C177.91 25.4395 179.114 24.8525 180.043 23.9502C181.248 22.7788 182.058 21.2972 182.601 19.718C183.166 18.075 183.345 16.2639 183.345 14.5351C183.345 12.6273 183.17 10.5722 182.549 8.75763C182.056 7.31468 181.319 5.98933 180.267 4.87938C179.279 3.83771 178.096 3.11656 176.717 2.71122C176.101 2.53085 175.434 2.43304 174.796 2.36913C173.895 2.27911 172.982 2.25266 172.078 2.25266H163.34ZM192.74 5.37717H195.598C196.476 5.37717 197.358 5.38934 198.234 5.43978C198.777 5.47157 199.371 5.51457 199.902 5.632C200.887 5.84854 201.792 6.26508 202.529 6.96206C203.298 7.68841 203.796 8.64669 204.125 9.64148C204.591 11.0536 204.669 12.8327 204.669 14.3108C204.669 15.8517 204.58 17.6168 204.128 19.098C203.838 20.052 203.386 21.1071 202.632 21.7896C201.977 22.3818 201.185 22.7544 200.332 22.9689C199.9 23.0788 199.437 23.1304 198.994 23.1656C198.369 23.2139 197.738 23.2271 197.112 23.2271H192.74V5.37717ZM188.788 2.25266V26.3352H197.8C199.187 26.3352 200.807 26.2526 202.136 25.8294C203.359 25.4395 204.562 24.8525 205.49 23.9502C206.696 22.7788 207.506 21.2972 208.049 19.718C208.614 18.075 208.792 16.2629 208.792 14.5351C208.792 12.6273 208.618 10.5722 207.998 8.75763C207.504 7.31468 206.768 5.98933 205.714 4.87938C204.726 3.83771 203.544 3.11656 202.166 2.71122C201.549 2.53085 200.883 2.43304 200.244 2.36913C199.344 2.27911 198.43 2.25266 197.525 2.25266H188.788ZM220.878 26.3352H224.812V16.1583L233.62 2.25266H229.118L222.979 12.7866L216.712 2.25266H212.104L220.878 16.1242V26.3352ZM12.6121 17.0608H18.4453V21.1128L18.2246 21.2828C17.3463 21.9645 16.352 22.484 15.3199 22.8866C14.2252 23.314 13.08 23.5544 11.9031 23.5544C9.67002 23.5544 7.73674 22.7953 6.24545 21.1171C4.5454 19.2036 4.1047 16.476 4.1047 14.0008C4.1047 11.6392 4.56503 9.11934 6.2289 7.33236C7.75101 5.69589 9.74578 5.03331 11.9556 5.03331C13.3944 5.03331 14.789 5.35982 15.9651 6.219C16.9354 6.92799 17.6102 7.85758 18.0189 8.96007L21.993 8.21718C21.4862 6.38283 20.5115 4.84206 18.9519 3.67939C16.9858 2.21211 14.3473 1.823 11.9556 1.823C9.99622 1.823 7.93673 2.10782 6.17635 3.0155C4.19034 4.03868 2.6452 5.50808 1.58342 7.47511C0.45822 9.56103 0 11.8513 0 14.2078C0 16.466 0.448327 18.6419 1.423 20.6807C2.35161 22.6193 3.7386 24.1218 5.61026 25.1787C7.64233 26.3251 9.91495 26.7647 12.2304 26.7647C14.2769 26.7647 16.2673 26.3657 18.1749 25.6252C19.6544 25.0514 21.2544 24.2679 22.4469 23.1831V13.9527H12.6121V17.0608Z" fill="#474747"/>
<path fill-rule="evenodd" clip-rule="evenodd" d="M134.347 26.1756H138.596L146.71 10.4246L154.727 26.1756H158.976L146.662 2.41211C142.553 10.3312 138.451 18.2539 134.347 26.1756Z" fill="#474747"/>
<path d="M33.1974 2.14142C31.9272 2.67509 30.8217 3.4787 29.8629 4.46229C28.8465 5.50757 28.0271 6.69705 27.4357 8.02826C26.5114 10.1121 26.2393 12.5305 26.2393 14.7882C26.2393 18.4055 27.0898 21.9394 29.6684 24.6021C32.1599 27.1741 35.4028 28.1323 38.9321 28.1323C42.4516 28.1323 45.6482 27.1488 48.1217 24.5843C50.7158 21.8918 51.5533 18.2971 51.5533 14.6583C51.5533 10.9944 50.7148 7.37008 48.0956 4.66712C45.6053 2.09752 42.3944 1.10791 38.8581 1.10791C36.9282 1.10791 34.9856 1.39007 33.1974 2.14142Z" fill="#474747"/>
<path d="M267.871 19.6599C266.335 25.3047 262.034 28.7991 256.005 28.7991C248.44 28.7991 243.525 23.2311 243.525 14.6679C243.525 6.10471 248.402 0.536707 255.89 0.536707C261.842 0.536707 266.143 4.06951 267.64 9.79111L263.916 10.4823C262.764 6.37351 259.884 3.83911 255.89 3.83911C250.783 3.83911 247.48 8.10151 247.48 14.6679C247.48 21.2343 250.821 25.4967 256.005 25.4967C260.114 25.4967 263.109 22.9239 264.223 18.7383L267.871 19.6599ZM283.045 28.7991C275.404 28.7991 270.45 23.2311 270.45 14.6679C270.45 6.10471 275.404 0.536707 283.045 0.536707C290.649 0.536707 295.641 6.10471 295.641 14.6679C295.641 23.2311 290.649 28.7991 283.045 28.7991ZM283.045 25.4967C288.345 25.4967 291.762 21.2343 291.762 14.6679C291.762 8.10151 288.345 3.83911 283.045 3.83911C277.746 3.83911 274.329 8.10151 274.329 14.6679C274.329 21.2343 277.746 25.4967 283.045 25.4967ZM298.738 1.22791H302.539V28.1079H298.738V1.22791ZM328.548 28.1079H324.324L310.462 7.87111H310.039V28.1079H306.238V1.22791H310.5L324.324 21.5031H324.785V1.22791H328.548V28.1079ZM346.817 8.33191C345.665 5.10631 343.131 3.83911 340.942 3.83911C337.793 3.83911 335.643 5.64391 335.643 8.33191C335.643 15.1671 351.272 10.6743 351.272 20.5047C351.272 25.2663 347.163 28.7991 341.672 28.7991C337.371 28.7991 332.763 26.9943 330.997 21.0423L334.837 20.0439C336.104 23.6535 338.83 25.4199 341.672 25.4199C345.32 25.4199 347.393 23.4231 347.393 20.4663C347.393 13.8615 331.765 18.2391 331.765 8.33191C331.765 3.64711 335.643 0.536707 340.904 0.536707C344.974 0.536707 349.352 2.84071 350.542 7.33351L346.817 8.33191Z" fill="#474747"/>
</svg>
