<svg width="33" height="34" viewBox="0 0 33 34" fill="none" xmlns="http://www.w3.org/2000/svg">
<path d="M9.53443 0.5H23.2573C28.4851 0.5 32.7327 4.74757 32.7327 9.97534V23.6983C32.7327 26.2113 31.7344 28.6214 29.9574 30.3983C28.1804 32.1753 25.7704 33.1736 23.2573 33.1736H9.53443C4.30665 33.1736 0.059082 28.926 0.059082 23.6983V9.97534C0.059082 7.46233 1.05737 5.05224 2.83435 3.27526C4.61132 1.49829 7.02141 0.5 9.53443 0.5ZM9.20769 3.76736C7.64789 3.76736 6.15197 4.38699 5.04902 5.48994C3.94607 6.59289 3.32644 8.0888 3.32644 9.64861V24.025C3.32644 27.276 5.95667 29.9062 9.20769 29.9062H23.5841C25.1439 29.9062 26.6398 29.2866 27.7427 28.1837C28.8457 27.0807 29.4653 25.5848 29.4653 24.025V9.64861C29.4653 6.39758 26.8351 3.76736 23.5841 3.76736H9.20769ZM24.9727 6.21788C25.5143 6.21788 26.0337 6.43303 26.4167 6.816C26.7997 7.19897 27.0148 7.71838 27.0148 8.25998C27.0148 8.80158 26.7997 9.32099 26.4167 9.70396C26.0337 10.0869 25.5143 10.3021 24.9727 10.3021C24.4311 10.3021 23.9117 10.0869 23.5287 9.70396C23.1458 9.32099 22.9306 8.80158 22.9306 8.25998C22.9306 7.71838 23.1458 7.19897 23.5287 6.816C23.9117 6.43303 24.4311 6.21788 24.9727 6.21788ZM16.3959 8.6684C18.5623 8.6684 20.6399 9.529 22.1718 11.0609C23.7037 12.5927 24.5643 14.6704 24.5643 16.8368C24.5643 19.0032 23.7037 21.0809 22.1718 22.6127C20.6399 24.1446 18.5623 25.0052 16.3959 25.0052C14.2295 25.0052 12.1518 24.1446 10.62 22.6127C9.08808 21.0809 8.22748 19.0032 8.22748 16.8368C8.22748 14.6704 9.08808 12.5927 10.62 11.0609C12.1518 9.529 14.2295 8.6684 16.3959 8.6684ZM16.3959 11.9358C15.096 11.9358 13.8494 12.4521 12.9303 13.3712C12.0112 14.2904 11.4948 15.537 11.4948 16.8368C11.4948 18.1366 12.0112 19.3832 12.9303 20.3024C13.8494 21.2215 15.096 21.7378 16.3959 21.7378C17.6957 21.7378 18.9423 21.2215 19.8614 20.3024C20.7806 19.3832 21.2969 18.1366 21.2969 16.8368C21.2969 15.537 20.7806 14.2904 19.8614 13.3712C18.9423 12.4521 17.6957 11.9358 16.3959 11.9358Z" fill="white"/>
</svg>
