<svg width="33" height="34" viewBox="0 0 33 34" fill="none" xmlns="http://www.w3.org/2000/svg">
<path d="M9.53443 0.564453H23.2573C28.4851 0.564453 32.7327 4.81202 32.7327 10.0398V23.7627C32.7327 26.2757 31.7344 28.6858 29.9574 30.4628C28.1804 32.2398 25.7704 33.2381 23.2573 33.2381H9.53443C4.30665 33.2381 0.059082 28.9905 0.059082 23.7627V10.0398C0.059082 7.52678 1.05737 5.11669 2.83435 3.33972C4.61132 1.56275 7.02141 0.564453 9.53443 0.564453ZM9.20769 3.83181C7.64789 3.83181 6.15197 4.45144 5.04902 5.55439C3.94607 6.65734 3.32644 8.15326 3.32644 9.71306V24.0894C3.32644 27.3405 5.95667 29.9707 9.20769 29.9707H23.5841C25.1439 29.9707 26.6398 29.3511 27.7427 28.2481C28.8457 27.1452 29.4653 25.6492 29.4653 24.0894V9.71306C29.4653 6.46204 26.8351 3.83181 23.5841 3.83181H9.20769ZM24.9727 6.28233C25.5143 6.28233 26.0337 6.49748 26.4167 6.88045C26.7997 7.26342 27.0148 7.78283 27.0148 8.32443C27.0148 8.86603 26.7997 9.38545 26.4167 9.76842C26.0337 10.1514 25.5143 10.3665 24.9727 10.3665C24.4311 10.3665 23.9117 10.1514 23.5287 9.76842C23.1458 9.38545 22.9306 8.86603 22.9306 8.32443C22.9306 7.78283 23.1458 7.26342 23.5287 6.88045C23.9117 6.49748 24.4311 6.28233 24.9727 6.28233ZM16.3959 8.73285C18.5623 8.73285 20.6399 9.59345 22.1718 11.1253C23.7037 12.6572 24.5643 14.7349 24.5643 16.9013C24.5643 19.0676 23.7037 21.1453 22.1718 22.6772C20.6399 24.2091 18.5623 25.0697 16.3959 25.0697C14.2295 25.0697 12.1518 24.2091 10.62 22.6772C9.08808 21.1453 8.22748 19.0676 8.22748 16.9013C8.22748 14.7349 9.08808 12.6572 10.62 11.1253C12.1518 9.59345 14.2295 8.73285 16.3959 8.73285ZM16.3959 12.0002C15.096 12.0002 13.8494 12.5166 12.9303 13.4357C12.0112 14.3548 11.4948 15.6014 11.4948 16.9013C11.4948 18.2011 12.0112 19.4477 12.9303 20.3668C13.8494 21.2859 15.096 21.8023 16.3959 21.8023C17.6957 21.8023 18.9423 21.2859 19.8614 20.3668C20.7806 19.4477 21.2969 18.2011 21.2969 16.9013C21.2969 15.6014 20.7806 14.3548 19.8614 13.4357C18.9423 12.5166 17.6957 12.0002 16.3959 12.0002Z" fill="black"/>
</svg>
