<svg width="31" height="30" viewBox="0 0 31 30" fill="none" xmlns="http://www.w3.org/2000/svg">
<path d="M27.1247 0.198242C27.9913 0.198242 28.8223 0.542481 29.4351 1.15523C30.0478 1.76798 30.3921 2.59904 30.3921 3.4656V26.3371C30.3921 27.2037 30.0478 28.0347 29.4351 28.6475C28.8223 29.2602 27.9913 29.6045 27.1247 29.6045H4.2532C3.38664 29.6045 2.55558 29.2602 1.94283 28.6475C1.33008 28.0347 0.98584 27.2037 0.98584 26.3371V3.4656C0.98584 2.59904 1.33008 1.76798 1.94283 1.15523C2.55558 0.542481 3.38664 0.198242 4.2532 0.198242H27.1247ZM26.3079 25.5203V16.8618C26.3079 15.4493 25.7468 14.0947 24.748 13.0959C23.7492 12.0971 22.3946 11.536 20.9821 11.536C19.5935 11.536 17.9761 12.3855 17.1919 13.6598V11.8464H12.634V25.5203H17.1919V17.4662C17.1919 16.2083 18.2048 15.1791 19.4628 15.1791C20.0693 15.1791 20.6511 15.4201 21.08 15.849C21.5089 16.2779 21.7499 16.8596 21.7499 17.4662V25.5203H26.3079ZM7.32452 9.2815C8.05243 9.2815 8.75052 8.99234 9.26523 8.47763C9.77994 7.96292 10.0691 7.26483 10.0691 6.53692C10.0691 5.0176 8.84384 3.776 7.32452 3.776C6.59228 3.776 5.89003 4.06688 5.37225 4.58466C4.85448 5.10243 4.5636 5.80468 4.5636 6.53692C4.5636 8.05624 5.8052 9.2815 7.32452 9.2815ZM9.59533 25.5203V11.8464H5.07004V25.5203H9.59533Z" fill="black"/>
</svg>
