<svg width="31" height="30" viewBox="0 0 31 30" fill="none" xmlns="http://www.w3.org/2000/svg">
<path d="M27.1247 0.133789C27.9913 0.133789 28.8223 0.478028 29.4351 1.09078C30.0478 1.70353 30.3921 2.53459 30.3921 3.40115V26.2727C30.3921 27.1392 30.0478 27.9703 29.4351 28.583C28.8223 29.1958 27.9913 29.54 27.1247 29.54H4.2532C3.38664 29.54 2.55558 29.1958 1.94283 28.583C1.33008 27.9703 0.98584 27.1392 0.98584 26.2727V3.40115C0.98584 2.53459 1.33008 1.70353 1.94283 1.09078C2.55558 0.478028 3.38664 0.133789 4.2532 0.133789H27.1247ZM26.3079 25.4558V16.7973C26.3079 15.3848 25.7468 14.0302 24.748 13.0314C23.7492 12.0326 22.3946 11.4715 20.9821 11.4715C19.5935 11.4715 17.9761 12.321 17.1919 13.5953V11.7819H12.634V25.4558H17.1919V17.4018C17.1919 16.1439 18.2048 15.1146 19.4628 15.1146C20.0693 15.1146 20.6511 15.3556 21.08 15.7845C21.5089 16.2134 21.7499 16.7952 21.7499 17.4018V25.4558H26.3079ZM7.32452 9.21705C8.05243 9.21705 8.75052 8.92789 9.26523 8.41318C9.77994 7.89847 10.0691 7.20038 10.0691 6.47247C10.0691 4.95315 8.84384 3.71155 7.32452 3.71155C6.59228 3.71155 5.89003 4.00243 5.37225 4.5202C4.85448 5.03797 4.5636 5.74023 4.5636 6.47247C4.5636 7.99179 5.8052 9.21705 7.32452 9.21705ZM9.59533 25.4558V11.7819H5.07004V25.4558H9.59533Z" fill="white"/>
</svg>
