<svg width="275" height="45" viewBox="0 0 275 45" fill="none" xmlns="http://www.w3.org/2000/svg">
<path d="M23.6328 0.93457C27.351 3.79743 30.0359 7.98485 31.5645 12.4199C33.0728 16.7965 33.458 21.4276 32.5918 25.2852C37.6721 26.7312 41.4058 28.7041 44.0596 31.6191C46.74 34.5635 48.3031 38.4509 49.0605 43.6758L49.083 43.8252L48.9355 43.8594C39.7162 45.9796 30.1732 43.5312 24.2871 37.791C20.9452 41.1111 17.3956 43.1979 13.4902 44.1006C9.78807 44.9563 5.77969 44.7465 1.3457 43.5332L0.453125 43.2773L0.31543 43.2363L0.337891 43.0947L0.470703 42.3223C1.96536 34.4286 7.39099 27.896 15.6602 25.29C13.7571 17.155 15.4395 8.30102 23.4209 0.943359L23.5225 0.849609L23.6328 0.93457ZM23.6455 3.95801C20.3805 7.3716 18.3583 10.7248 17.4082 14.3193C16.4473 17.9548 16.5785 21.8515 17.6494 26.3262L17.6855 26.4756L17.5381 26.5215C13.6343 27.7252 10.4928 29.4482 8.07715 31.9043C5.69354 34.3279 4.00854 37.4749 3.00098 41.5654C5.5023 42.1463 7.7923 42.4433 9.92773 42.4434C12.8916 42.4434 15.2348 41.9218 17.4395 40.7979C19.6478 39.672 21.7273 37.9375 24.1582 35.498L24.2734 35.3818L24.3896 35.4971C30.4434 41.4933 37.7406 43.3004 46.415 41.9893C45.3542 36.9214 43.9459 33.7774 41.5811 31.5459C39.185 29.285 35.7888 27.9405 30.709 26.5117L30.5576 26.4688L30.5938 26.3154C31.421 22.7865 31.0145 18.3957 29.7158 14.2666C28.4362 10.198 26.2966 6.40577 23.6455 3.95801Z" fill="#B5843C" stroke="#B5843C" stroke-width="0.328881"/>
<mask id="path-2-outside-1_439_274" maskUnits="userSpaceOnUse" x="57.4238" y="12.9185" width="217" height="25" fill="black">
<rect fill="white" x="57.4238" y="12.9185" width="217" height="25"/>
<path fill-rule="evenodd" clip-rule="evenodd" d="M109.826 36.485H125.122V33.6236H113.464V14.5032H109.826V36.485ZM133.137 17.1905H135.771C136.577 17.1905 137.391 17.2017 138.197 17.2482C138.697 17.2774 139.243 17.317 139.733 17.4251C140.638 17.6245 141.472 18.008 142.151 18.6496C142.859 19.3183 143.318 20.2005 143.62 21.1164C144.049 22.4164 144.121 24.0542 144.121 25.4151C144.121 26.8337 144.039 28.4587 143.623 29.8223C143.356 30.7005 142.94 31.6719 142.245 32.2991C141.642 32.8455 140.913 33.1885 140.128 33.3859C139.731 33.4871 139.304 33.5346 138.896 33.566C138.322 33.6115 137.741 33.6236 137.165 33.6236H133.137V17.1905ZM129.5 14.314V36.485H137.797C139.074 36.485 140.566 36.409 141.789 36.0194C142.914 35.6604 144.023 35.12 144.878 34.2893C145.988 33.2109 146.733 31.8469 147.233 30.3931C147.752 28.8805 147.917 27.2131 147.917 25.6216C147.917 23.8652 147.756 21.9732 147.186 20.3027C146.731 18.9742 146.053 17.7541 145.084 16.7322C144.173 15.7733 143.085 15.1084 141.816 14.7362C141.248 14.5701 140.634 14.4801 140.047 14.4212C139.218 14.3384 138.377 14.314 137.544 14.314H129.5ZM165.58 17.1905H168.213C169.019 17.1905 169.832 17.2017 170.638 17.2482C171.138 17.2774 171.684 17.317 172.175 17.4251C173.081 17.6245 173.913 18.008 174.592 18.6496C175.301 19.3183 175.76 20.2005 176.061 21.1164C176.49 22.4164 176.563 24.0542 176.563 25.4151C176.563 26.8337 176.48 28.4587 176.066 29.8223C175.798 30.6996 175.381 31.6719 174.687 32.2991C174.084 32.8455 173.355 33.1885 172.57 33.3859C172.173 33.4871 171.746 33.5346 171.337 33.566C170.763 33.6115 170.183 33.6236 169.606 33.6236H165.58V17.1905ZM161.942 14.314V36.485H170.24C171.515 36.485 173.008 36.409 174.231 36.0194C175.356 35.6604 176.464 35.12 177.319 34.2893C178.429 33.2109 179.174 31.8469 179.675 30.3931C180.193 28.8805 180.358 27.2131 180.358 25.6216C180.358 23.8652 180.197 21.9732 179.628 20.3027C179.174 18.9742 178.496 17.7541 177.526 16.7322C176.616 15.7733 175.527 15.1084 174.257 14.7362C173.69 14.5701 173.077 14.4801 172.488 14.4212C171.66 14.3384 170.819 14.314 169.986 14.314H161.942ZM212.436 17.1905H215.069C215.876 17.1905 216.689 17.2017 217.495 17.2482C217.996 17.2774 218.541 17.317 219.031 17.4251C219.937 17.6245 220.771 18.008 221.45 18.6496C222.157 19.3183 222.617 20.2005 222.918 21.1164C223.347 22.4164 223.42 24.0542 223.42 25.4151C223.42 26.8337 223.338 28.4587 222.922 29.8223C222.654 30.7005 222.238 31.671 221.543 32.2991C220.941 32.8455 220.211 33.1885 219.427 33.3859C219.03 33.4871 218.602 33.5346 218.195 33.566C217.62 33.6115 217.039 33.6236 216.463 33.6236H212.436V17.1905ZM208.799 14.314V36.485H217.096C218.372 36.485 219.864 36.409 221.087 36.0194C222.213 35.6604 223.321 35.12 224.176 34.2893C225.286 33.2109 226.031 31.8469 226.531 30.3931C227.051 28.8805 227.216 27.2131 227.216 25.6216C227.216 23.8652 227.055 21.9732 226.484 20.3027C226.029 18.9742 225.351 17.7541 224.382 16.7322C223.473 15.7733 222.384 15.1093 221.114 14.7362C220.547 14.5701 219.933 14.4801 219.345 14.4212C218.516 14.3384 217.675 14.314 216.843 14.314H208.799ZM235.866 17.1905H238.496C239.305 17.1905 240.117 17.2017 240.923 17.2482C241.423 17.2774 241.97 17.317 242.459 17.4251C243.366 17.6245 244.199 18.008 244.877 18.6496C245.585 19.3183 246.044 20.2005 246.346 21.1164C246.775 22.4164 246.847 24.0542 246.847 25.4151C246.847 26.8337 246.765 28.4587 246.35 29.8223C246.082 30.7005 245.666 31.6719 244.972 32.3003C244.369 32.8455 243.64 33.1885 242.855 33.3859C242.457 33.4871 242.03 33.5346 241.623 33.567C241.048 33.6115 240.467 33.6236 239.89 33.6236H235.866V17.1905ZM232.227 14.314V36.485H240.524C241.801 36.485 243.292 36.409 244.515 36.0194C245.641 35.6604 246.749 35.12 247.603 34.2893C248.714 33.2109 249.46 31.8469 249.959 30.3931C250.479 28.8805 250.644 27.2122 250.644 25.6216C250.644 23.8652 250.483 21.9732 249.912 20.3027C249.458 18.9742 248.78 17.7541 247.809 16.7322C246.9 15.7733 245.812 15.1093 244.544 14.7362C243.975 14.5701 243.362 14.4801 242.774 14.4212C241.945 14.3384 241.103 14.314 240.271 14.314H232.227ZM261.77 36.485H265.392V27.1159L273.5 14.314H269.356L263.704 24.0118L257.935 14.314H253.693L261.77 27.0845V36.485ZM70.0348 27.9468H75.4051V31.6771L75.2019 31.8336C74.3933 32.4613 73.4779 32.9395 72.5277 33.3102C71.5199 33.7037 70.4656 33.925 69.3821 33.925C67.3263 33.925 65.5465 33.2261 64.1736 31.6812C62.6084 29.9195 62.2027 27.4084 62.2027 25.1297C62.2027 22.9555 62.6265 20.6357 64.1583 18.9905C65.5596 17.4839 67.396 16.874 69.4305 16.874C70.755 16.874 72.039 17.1745 73.1217 17.9655C74.015 18.6182 74.6362 19.4741 75.0125 20.489L78.6712 19.8051C78.2046 18.1164 77.3072 16.6979 75.8715 15.6275C74.0615 14.2767 71.6323 13.9185 69.4305 13.9185C67.6266 13.9185 65.7306 14.1807 64.1099 15.0163C62.2816 15.9583 60.8591 17.311 59.8816 19.1219C58.8457 21.0423 58.4238 23.1508 58.4238 25.3202C58.4238 27.3992 58.8366 29.4024 59.7339 31.2793C60.5888 33.0641 61.8657 34.4473 63.5888 35.4203C65.4596 36.4758 67.5518 36.8805 69.6835 36.8805C71.5675 36.8805 73.3999 36.5131 75.1562 35.8314C76.5182 35.3031 77.9912 34.5819 79.089 33.5832V25.0853H70.0348V27.9468Z"/>
</mask>
<path fill-rule="evenodd" clip-rule="evenodd" d="M109.826 36.485H125.122V33.6236H113.464V14.5032H109.826V36.485ZM133.137 17.1905H135.771C136.577 17.1905 137.391 17.2017 138.197 17.2482C138.697 17.2774 139.243 17.317 139.733 17.4251C140.638 17.6245 141.472 18.008 142.151 18.6496C142.859 19.3183 143.318 20.2005 143.62 21.1164C144.049 22.4164 144.121 24.0542 144.121 25.4151C144.121 26.8337 144.039 28.4587 143.623 29.8223C143.356 30.7005 142.94 31.6719 142.245 32.2991C141.642 32.8455 140.913 33.1885 140.128 33.3859C139.731 33.4871 139.304 33.5346 138.896 33.566C138.322 33.6115 137.741 33.6236 137.165 33.6236H133.137V17.1905ZM129.5 14.314V36.485H137.797C139.074 36.485 140.566 36.409 141.789 36.0194C142.914 35.6604 144.023 35.12 144.878 34.2893C145.988 33.2109 146.733 31.8469 147.233 30.3931C147.752 28.8805 147.917 27.2131 147.917 25.6216C147.917 23.8652 147.756 21.9732 147.186 20.3027C146.731 18.9742 146.053 17.7541 145.084 16.7322C144.173 15.7733 143.085 15.1084 141.816 14.7362C141.248 14.5701 140.634 14.4801 140.047 14.4212C139.218 14.3384 138.377 14.314 137.544 14.314H129.5ZM165.58 17.1905H168.213C169.019 17.1905 169.832 17.2017 170.638 17.2482C171.138 17.2774 171.684 17.317 172.175 17.4251C173.081 17.6245 173.913 18.008 174.592 18.6496C175.301 19.3183 175.76 20.2005 176.061 21.1164C176.49 22.4164 176.563 24.0542 176.563 25.4151C176.563 26.8337 176.48 28.4587 176.066 29.8223C175.798 30.6996 175.381 31.6719 174.687 32.2991C174.084 32.8455 173.355 33.1885 172.57 33.3859C172.173 33.4871 171.746 33.5346 171.337 33.566C170.763 33.6115 170.183 33.6236 169.606 33.6236H165.58V17.1905ZM161.942 14.314V36.485H170.24C171.515 36.485 173.008 36.409 174.231 36.0194C175.356 35.6604 176.464 35.12 177.319 34.2893C178.429 33.2109 179.174 31.8469 179.675 30.3931C180.193 28.8805 180.358 27.2131 180.358 25.6216C180.358 23.8652 180.197 21.9732 179.628 20.3027C179.174 18.9742 178.496 17.7541 177.526 16.7322C176.616 15.7733 175.527 15.1084 174.257 14.7362C173.69 14.5701 173.077 14.4801 172.488 14.4212C171.66 14.3384 170.819 14.314 169.986 14.314H161.942ZM212.436 17.1905H215.069C215.876 17.1905 216.689 17.2017 217.495 17.2482C217.996 17.2774 218.541 17.317 219.031 17.4251C219.937 17.6245 220.771 18.008 221.45 18.6496C222.157 19.3183 222.617 20.2005 222.918 21.1164C223.347 22.4164 223.42 24.0542 223.42 25.4151C223.42 26.8337 223.338 28.4587 222.922 29.8223C222.654 30.7005 222.238 31.671 221.543 32.2991C220.941 32.8455 220.211 33.1885 219.427 33.3859C219.03 33.4871 218.602 33.5346 218.195 33.566C217.62 33.6115 217.039 33.6236 216.463 33.6236H212.436V17.1905ZM208.799 14.314V36.485H217.096C218.372 36.485 219.864 36.409 221.087 36.0194C222.213 35.6604 223.321 35.12 224.176 34.2893C225.286 33.2109 226.031 31.8469 226.531 30.3931C227.051 28.8805 227.216 27.2131 227.216 25.6216C227.216 23.8652 227.055 21.9732 226.484 20.3027C226.029 18.9742 225.351 17.7541 224.382 16.7322C223.473 15.7733 222.384 15.1093 221.114 14.7362C220.547 14.5701 219.933 14.4801 219.345 14.4212C218.516 14.3384 217.675 14.314 216.843 14.314H208.799ZM235.866 17.1905H238.496C239.305 17.1905 240.117 17.2017 240.923 17.2482C241.423 17.2774 241.97 17.317 242.459 17.4251C243.366 17.6245 244.199 18.008 244.877 18.6496C245.585 19.3183 246.044 20.2005 246.346 21.1164C246.775 22.4164 246.847 24.0542 246.847 25.4151C246.847 26.8337 246.765 28.4587 246.35 29.8223C246.082 30.7005 245.666 31.6719 244.972 32.3003C244.369 32.8455 243.64 33.1885 242.855 33.3859C242.457 33.4871 242.03 33.5346 241.623 33.567C241.048 33.6115 240.467 33.6236 239.89 33.6236H235.866V17.1905ZM232.227 14.314V36.485H240.524C241.801 36.485 243.292 36.409 244.515 36.0194C245.641 35.6604 246.749 35.12 247.603 34.2893C248.714 33.2109 249.46 31.8469 249.959 30.3931C250.479 28.8805 250.644 27.2122 250.644 25.6216C250.644 23.8652 250.483 21.9732 249.912 20.3027C249.458 18.9742 248.78 17.7541 247.809 16.7322C246.9 15.7733 245.812 15.1093 244.544 14.7362C243.975 14.5701 243.362 14.4801 242.774 14.4212C241.945 14.3384 241.103 14.314 240.271 14.314H232.227ZM261.77 36.485H265.392V27.1159L273.5 14.314H269.356L263.704 24.0118L257.935 14.314H253.693L261.77 27.0845V36.485ZM70.0348 27.9468H75.4051V31.6771L75.2019 31.8336C74.3933 32.4613 73.4779 32.9395 72.5277 33.3102C71.5199 33.7037 70.4656 33.925 69.3821 33.925C67.3263 33.925 65.5465 33.2261 64.1736 31.6812C62.6084 29.9195 62.2027 27.4084 62.2027 25.1297C62.2027 22.9555 62.6265 20.6357 64.1583 18.9905C65.5596 17.4839 67.396 16.874 69.4305 16.874C70.755 16.874 72.039 17.1745 73.1217 17.9655C74.015 18.6182 74.6362 19.4741 75.0125 20.489L78.6712 19.8051C78.2046 18.1164 77.3072 16.6979 75.8715 15.6275C74.0615 14.2767 71.6323 13.9185 69.4305 13.9185C67.6266 13.9185 65.7306 14.1807 64.1099 15.0163C62.2816 15.9583 60.8591 17.311 59.8816 19.1219C58.8457 21.0423 58.4238 23.1508 58.4238 25.3202C58.4238 27.3992 58.8366 29.4024 59.7339 31.2793C60.5888 33.0641 61.8657 34.4473 63.5888 35.4203C65.4596 36.4758 67.5518 36.8805 69.6835 36.8805C71.5675 36.8805 73.3999 36.5131 75.1562 35.8314C76.5182 35.3031 77.9912 34.5819 79.089 33.5832V25.0853H70.0348V27.9468Z" fill="#18894D"/>
<path fill-rule="evenodd" clip-rule="evenodd" d="M109.826 36.485H125.122V33.6236H113.464V14.5032H109.826V36.485ZM133.137 17.1905H135.771C136.577 17.1905 137.391 17.2017 138.197 17.2482C138.697 17.2774 139.243 17.317 139.733 17.4251C140.638 17.6245 141.472 18.008 142.151 18.6496C142.859 19.3183 143.318 20.2005 143.62 21.1164C144.049 22.4164 144.121 24.0542 144.121 25.4151C144.121 26.8337 144.039 28.4587 143.623 29.8223C143.356 30.7005 142.94 31.6719 142.245 32.2991C141.642 32.8455 140.913 33.1885 140.128 33.3859C139.731 33.4871 139.304 33.5346 138.896 33.566C138.322 33.6115 137.741 33.6236 137.165 33.6236H133.137V17.1905ZM129.5 14.314V36.485H137.797C139.074 36.485 140.566 36.409 141.789 36.0194C142.914 35.6604 144.023 35.12 144.878 34.2893C145.988 33.2109 146.733 31.8469 147.233 30.3931C147.752 28.8805 147.917 27.2131 147.917 25.6216C147.917 23.8652 147.756 21.9732 147.186 20.3027C146.731 18.9742 146.053 17.7541 145.084 16.7322C144.173 15.7733 143.085 15.1084 141.816 14.7362C141.248 14.5701 140.634 14.4801 140.047 14.4212C139.218 14.3384 138.377 14.314 137.544 14.314H129.5ZM165.58 17.1905H168.213C169.019 17.1905 169.832 17.2017 170.638 17.2482C171.138 17.2774 171.684 17.317 172.175 17.4251C173.081 17.6245 173.913 18.008 174.592 18.6496C175.301 19.3183 175.76 20.2005 176.061 21.1164C176.49 22.4164 176.563 24.0542 176.563 25.4151C176.563 26.8337 176.48 28.4587 176.066 29.8223C175.798 30.6996 175.381 31.6719 174.687 32.2991C174.084 32.8455 173.355 33.1885 172.57 33.3859C172.173 33.4871 171.746 33.5346 171.337 33.566C170.763 33.6115 170.183 33.6236 169.606 33.6236H165.58V17.1905ZM161.942 14.314V36.485H170.24C171.515 36.485 173.008 36.409 174.231 36.0194C175.356 35.6604 176.464 35.12 177.319 34.2893C178.429 33.2109 179.174 31.8469 179.675 30.3931C180.193 28.8805 180.358 27.2131 180.358 25.6216C180.358 23.8652 180.197 21.9732 179.628 20.3027C179.174 18.9742 178.496 17.7541 177.526 16.7322C176.616 15.7733 175.527 15.1084 174.257 14.7362C173.69 14.5701 173.077 14.4801 172.488 14.4212C171.66 14.3384 170.819 14.314 169.986 14.314H161.942ZM212.436 17.1905H215.069C215.876 17.1905 216.689 17.2017 217.495 17.2482C217.996 17.2774 218.541 17.317 219.031 17.4251C219.937 17.6245 220.771 18.008 221.45 18.6496C222.157 19.3183 222.617 20.2005 222.918 21.1164C223.347 22.4164 223.42 24.0542 223.42 25.4151C223.42 26.8337 223.338 28.4587 222.922 29.8223C222.654 30.7005 222.238 31.671 221.543 32.2991C220.941 32.8455 220.211 33.1885 219.427 33.3859C219.03 33.4871 218.602 33.5346 218.195 33.566C217.62 33.6115 217.039 33.6236 216.463 33.6236H212.436V17.1905ZM208.799 14.314V36.485H217.096C218.372 36.485 219.864 36.409 221.087 36.0194C222.213 35.6604 223.321 35.12 224.176 34.2893C225.286 33.2109 226.031 31.8469 226.531 30.3931C227.051 28.8805 227.216 27.2131 227.216 25.6216C227.216 23.8652 227.055 21.9732 226.484 20.3027C226.029 18.9742 225.351 17.7541 224.382 16.7322C223.473 15.7733 222.384 15.1093 221.114 14.7362C220.547 14.5701 219.933 14.4801 219.345 14.4212C218.516 14.3384 217.675 14.314 216.843 14.314H208.799ZM235.866 17.1905H238.496C239.305 17.1905 240.117 17.2017 240.923 17.2482C241.423 17.2774 241.97 17.317 242.459 17.4251C243.366 17.6245 244.199 18.008 244.877 18.6496C245.585 19.3183 246.044 20.2005 246.346 21.1164C246.775 22.4164 246.847 24.0542 246.847 25.4151C246.847 26.8337 246.765 28.4587 246.35 29.8223C246.082 30.7005 245.666 31.6719 244.972 32.3003C244.369 32.8455 243.64 33.1885 242.855 33.3859C242.457 33.4871 242.03 33.5346 241.623 33.567C241.048 33.6115 240.467 33.6236 239.89 33.6236H235.866V17.1905ZM232.227 14.314V36.485H240.524C241.801 36.485 243.292 36.409 244.515 36.0194C245.641 35.6604 246.749 35.12 247.603 34.2893C248.714 33.2109 249.46 31.8469 249.959 30.3931C250.479 28.8805 250.644 27.2122 250.644 25.6216C250.644 23.8652 250.483 21.9732 249.912 20.3027C249.458 18.9742 248.78 17.7541 247.809 16.7322C246.9 15.7733 245.812 15.1093 244.544 14.7362C243.975 14.5701 243.362 14.4801 242.774 14.4212C241.945 14.3384 241.103 14.314 240.271 14.314H232.227ZM261.77 36.485H265.392V27.1159L273.5 14.314H269.356L263.704 24.0118L257.935 14.314H253.693L261.77 27.0845V36.485ZM70.0348 27.9468H75.4051V31.6771L75.2019 31.8336C74.3933 32.4613 73.4779 32.9395 72.5277 33.3102C71.5199 33.7037 70.4656 33.925 69.3821 33.925C67.3263 33.925 65.5465 33.2261 64.1736 31.6812C62.6084 29.9195 62.2027 27.4084 62.2027 25.1297C62.2027 22.9555 62.6265 20.6357 64.1583 18.9905C65.5596 17.4839 67.396 16.874 69.4305 16.874C70.755 16.874 72.039 17.1745 73.1217 17.9655C74.015 18.6182 74.6362 19.4741 75.0125 20.489L78.6712 19.8051C78.2046 18.1164 77.3072 16.6979 75.8715 15.6275C74.0615 14.2767 71.6323 13.9185 69.4305 13.9185C67.6266 13.9185 65.7306 14.1807 64.1099 15.0163C62.2816 15.9583 60.8591 17.311 59.8816 19.1219C58.8457 21.0423 58.4238 23.1508 58.4238 25.3202C58.4238 27.3992 58.8366 29.4024 59.7339 31.2793C60.5888 33.0641 61.8657 34.4473 63.5888 35.4203C65.4596 36.4758 67.5518 36.8805 69.6835 36.8805C71.5675 36.8805 73.3999 36.5131 75.1562 35.8314C76.5182 35.3031 77.9912 34.5819 79.089 33.5832V25.0853H70.0348V27.9468Z" stroke="#18894D" stroke-width="0.634884" mask="url(#path-2-outside-1_439_274)"/>
<path d="M193.585 14.3877L204.922 36.2656L205.042 36.4971H200.772L200.729 36.4102L193.487 22.1855L186.16 36.4111L186.115 36.4971H181.847L181.967 36.2656C185.745 28.9728 189.521 21.6782 193.304 14.3877L193.444 14.1162L193.585 14.3877Z" fill="#18894D" stroke="#18894D" stroke-width="0.317442"/>
<path d="M88.986 14.2117C87.8166 14.703 86.7988 15.4429 85.9161 16.3484C84.9804 17.3107 84.226 18.4058 83.6816 19.6313C82.8306 21.5498 82.5801 23.7762 82.5801 25.8547C82.5801 29.1849 83.3632 32.4383 85.7371 34.8897C88.0307 37.2575 91.0163 38.1396 94.2654 38.1396C97.5056 38.1396 100.448 37.2342 102.726 34.8732C105.114 32.3944 105.885 29.0851 105.885 25.7351C105.885 22.362 105.113 19.0254 102.702 16.537C100.409 14.1713 97.453 13.2603 94.1973 13.2603C92.4206 13.2603 90.6322 13.52 88.986 14.2117Z" fill="url(#paint0_linear_439_274)"/>
<defs>
<linearGradient id="paint0_linear_439_274" x1="98.2298" y1="18.9021" x2="89.354" y2="35.5719" gradientUnits="userSpaceOnUse">
<stop stop-color="#B78D38"/>
<stop offset="0.429" stop-color="#EFE07B"/>
<stop offset="1" stop-color="#B5822B"/>
</linearGradient>
</defs>
</svg>
