<svg width="275" height="45" viewBox="0 0 275 45" fill="none" xmlns="http://www.w3.org/2000/svg">
<path d="M24.1328 0.960938C27.851 3.8238 30.5359 8.01122 32.0645 12.4463C33.5728 16.8229 33.958 21.454 33.0918 25.3115C38.1721 26.7576 41.9058 28.7304 44.5596 31.6455C47.24 34.5898 48.8031 38.4773 49.5605 43.7021L49.583 43.8516L49.4355 43.8857C40.2162 46.0059 30.6732 43.5576 24.7871 37.8174C21.4452 41.1375 17.8956 43.2243 13.9902 44.127C10.2881 44.9826 6.27969 44.7729 1.8457 43.5596L0.953125 43.3037L0.81543 43.2627L0.837891 43.1211L0.970703 42.3486C2.46536 34.4549 7.89099 27.9224 16.1602 25.3164C14.2571 17.1813 15.9395 8.32739 23.9209 0.969727L24.0225 0.875977L24.1328 0.960938ZM24.1455 3.98438C20.8805 7.39796 18.8583 10.7511 17.9082 14.3457C16.9473 17.9812 17.0785 21.8779 18.1494 26.3525L18.1855 26.502L18.0381 26.5479C14.1343 27.7515 10.9928 29.4745 8.57715 31.9307C6.19354 34.3543 4.50854 37.5012 3.50098 41.5918C6.0023 42.1727 8.2923 42.4697 10.4277 42.4697C13.3916 42.4697 15.7348 41.9481 17.9395 40.8242C20.1478 39.6984 22.2273 37.9639 24.6582 35.5244L24.7734 35.4082L24.8896 35.5234C30.9434 41.5197 38.2406 43.3267 46.915 42.0156C45.8542 36.9478 44.4459 33.8038 42.0811 31.5723C39.685 29.3114 36.2888 27.9669 31.209 26.5381L31.0576 26.4951L31.0938 26.3418C31.921 22.8129 31.5145 18.422 30.2158 14.293C28.9362 10.2244 26.7966 6.43214 24.1455 3.98438Z" fill="#B5843C" stroke="#B5843C" stroke-width="0.328881"/>
<mask id="path-2-outside-1_316_46" maskUnits="userSpaceOnUse" x="57.9238" y="12.9448" width="217" height="25" fill="black">
<rect fill="white" x="57.9238" y="12.9448" width="217" height="25"/>
<path fill-rule="evenodd" clip-rule="evenodd" d="M110.326 36.5114H125.622V33.65H113.964V14.5296H110.326V36.5114ZM133.637 17.2169H136.271C137.077 17.2169 137.891 17.2281 138.697 17.2745C139.197 17.3038 139.743 17.3434 140.233 17.4515C141.138 17.6508 141.972 18.0343 142.651 18.676C143.359 19.3447 143.818 20.2269 144.12 21.1427C144.549 22.4428 144.621 24.0806 144.621 25.4414C144.621 26.86 144.539 28.485 144.123 29.8487C143.856 30.7269 143.44 31.6983 142.745 32.3254C142.142 32.8718 141.413 33.2148 140.628 33.4123C140.231 33.5135 139.804 33.561 139.396 33.5923C138.822 33.6379 138.241 33.65 137.665 33.65H133.637V17.2169ZM130 14.3404V36.5114H138.297C139.574 36.5114 141.066 36.4354 142.289 36.0458C143.414 35.6868 144.523 35.1464 145.378 34.3157C146.488 33.2372 147.233 31.8733 147.733 30.4194C148.252 28.9069 148.417 27.2395 148.417 25.648C148.417 23.8916 148.256 21.9996 147.686 20.329C147.231 19.0006 146.553 17.7805 145.584 16.7586C144.673 15.7996 143.585 15.1348 142.316 14.7625C141.748 14.5965 141.134 14.5064 140.547 14.4476C139.718 14.3647 138.877 14.3404 138.044 14.3404H130ZM166.08 17.2169H168.713C169.519 17.2169 170.332 17.2281 171.138 17.2745C171.638 17.3038 172.184 17.3434 172.675 17.4515C173.581 17.6508 174.413 18.0343 175.092 18.676C175.801 19.3447 176.26 20.2269 176.561 21.1427C176.99 22.4428 177.063 24.0806 177.063 25.4414C177.063 26.86 176.98 28.485 176.566 29.8487C176.298 30.726 175.881 31.6983 175.187 32.3254C174.584 32.8718 173.855 33.2148 173.07 33.4123C172.673 33.5135 172.246 33.561 171.837 33.5923C171.263 33.6379 170.683 33.65 170.106 33.65H166.08V17.2169ZM162.442 14.3404V36.5114H170.74C172.015 36.5114 173.508 36.4354 174.731 36.0458C175.856 35.6868 176.964 35.1464 177.819 34.3157C178.929 33.2372 179.674 31.8733 180.175 30.4194C180.693 28.9069 180.858 27.2395 180.858 25.648C180.858 23.8916 180.697 21.9996 180.128 20.329C179.674 19.0006 178.996 17.7805 178.026 16.7586C177.116 15.7996 176.027 15.1348 174.757 14.7625C174.19 14.5965 173.577 14.5064 172.988 14.4476C172.16 14.3647 171.319 14.3404 170.486 14.3404H162.442ZM212.936 17.2169H215.569C216.376 17.2169 217.189 17.2281 217.995 17.2745C218.496 17.3038 219.041 17.3434 219.531 17.4515C220.437 17.6508 221.271 18.0343 221.95 18.676C222.657 19.3447 223.117 20.2269 223.418 21.1427C223.847 22.4428 223.92 24.0806 223.92 25.4414C223.92 26.86 223.838 28.485 223.422 29.8487C223.154 30.7269 222.738 31.6974 222.043 32.3254C221.441 32.8718 220.711 33.2148 219.927 33.4123C219.53 33.5135 219.102 33.561 218.695 33.5923C218.12 33.6379 217.539 33.65 216.963 33.65H212.936V17.2169ZM209.299 14.3404V36.5114H217.596C218.872 36.5114 220.364 36.4354 221.587 36.0458C222.713 35.6868 223.821 35.1464 224.676 34.3157C225.786 33.2372 226.531 31.8733 227.031 30.4194C227.551 28.9069 227.716 27.2395 227.716 25.648C227.716 23.8916 227.555 21.9996 226.984 20.329C226.529 19.0006 225.851 17.7805 224.882 16.7586C223.973 15.7996 222.884 15.1357 221.614 14.7625C221.047 14.5965 220.433 14.5064 219.845 14.4476C219.016 14.3647 218.175 14.3404 217.343 14.3404H209.299ZM236.366 17.2169H238.996C239.805 17.2169 240.617 17.2281 241.423 17.2745C241.923 17.3038 242.47 17.3434 242.959 17.4515C243.866 17.6508 244.699 18.0343 245.377 18.676C246.085 19.3447 246.544 20.2269 246.846 21.1427C247.275 22.4428 247.347 24.0806 247.347 25.4414C247.347 26.86 247.265 28.485 246.85 29.8487C246.582 30.7269 246.166 31.6983 245.472 32.3266C244.869 32.8718 244.14 33.2148 243.355 33.4123C242.957 33.5135 242.53 33.561 242.123 33.5934C241.548 33.6379 240.967 33.65 240.39 33.65H236.366V17.2169ZM232.727 14.3404V36.5114H241.024C242.301 36.5114 243.792 36.4354 245.015 36.0458C246.141 35.6868 247.249 35.1464 248.103 34.3157C249.214 33.2372 249.96 31.8733 250.459 30.4194C250.979 28.9069 251.144 27.2386 251.144 25.648C251.144 23.8916 250.983 21.9996 250.412 20.329C249.958 19.0006 249.28 17.7805 248.309 16.7586C247.4 15.7996 246.312 15.1357 245.044 14.7625C244.475 14.5965 243.862 14.5064 243.274 14.4476C242.445 14.3647 241.603 14.3404 240.771 14.3404H232.727ZM262.27 36.5114H265.892V27.1423L274 14.3404H269.856L264.204 24.0382L258.435 14.3404H254.193L262.27 27.1109V36.5114ZM70.5348 27.9731H75.9051V31.7035L75.7019 31.86C74.8933 32.4876 73.9779 32.9659 73.0277 33.3365C72.0199 33.73 70.9656 33.9513 69.8821 33.9513C67.8263 33.9513 66.0465 33.2525 64.6736 31.7075C63.1084 29.9459 62.7027 27.4348 62.7027 25.1561C62.7027 22.9818 63.1265 20.662 64.6583 19.0169C66.0596 17.5103 67.896 16.9003 69.9305 16.9003C71.255 16.9003 72.539 17.2009 73.6217 17.9919C74.515 18.6446 75.1362 19.5004 75.5125 20.5154L79.1712 19.8315C78.7045 18.1427 77.8072 16.7243 76.3715 15.6539C74.5615 14.3031 72.1323 13.9448 69.9305 13.9448C68.1266 13.9448 66.2306 14.207 64.6099 15.0427C62.7816 15.9846 61.3591 17.3374 60.3816 19.1483C59.3457 21.0687 58.9238 23.1772 58.9238 25.3466C58.9238 27.4256 59.3366 29.4288 60.2339 31.3057C61.0888 33.0905 62.3657 34.4737 64.0888 35.4467C65.9596 36.5021 68.0518 36.9068 70.1835 36.9068C72.0675 36.9068 73.8999 36.5395 75.6562 35.8578C77.0182 35.3295 78.4912 34.6082 79.589 33.6095V25.1117H70.5348V27.9731Z"/>
</mask>
<path fill-rule="evenodd" clip-rule="evenodd" d="M110.326 36.5114H125.622V33.65H113.964V14.5296H110.326V36.5114ZM133.637 17.2169H136.271C137.077 17.2169 137.891 17.2281 138.697 17.2745C139.197 17.3038 139.743 17.3434 140.233 17.4515C141.138 17.6508 141.972 18.0343 142.651 18.676C143.359 19.3447 143.818 20.2269 144.12 21.1427C144.549 22.4428 144.621 24.0806 144.621 25.4414C144.621 26.86 144.539 28.485 144.123 29.8487C143.856 30.7269 143.44 31.6983 142.745 32.3254C142.142 32.8718 141.413 33.2148 140.628 33.4123C140.231 33.5135 139.804 33.561 139.396 33.5923C138.822 33.6379 138.241 33.65 137.665 33.65H133.637V17.2169ZM130 14.3404V36.5114H138.297C139.574 36.5114 141.066 36.4354 142.289 36.0458C143.414 35.6868 144.523 35.1464 145.378 34.3157C146.488 33.2372 147.233 31.8733 147.733 30.4194C148.252 28.9069 148.417 27.2395 148.417 25.648C148.417 23.8916 148.256 21.9996 147.686 20.329C147.231 19.0006 146.553 17.7805 145.584 16.7586C144.673 15.7996 143.585 15.1348 142.316 14.7625C141.748 14.5965 141.134 14.5064 140.547 14.4476C139.718 14.3647 138.877 14.3404 138.044 14.3404H130ZM166.08 17.2169H168.713C169.519 17.2169 170.332 17.2281 171.138 17.2745C171.638 17.3038 172.184 17.3434 172.675 17.4515C173.581 17.6508 174.413 18.0343 175.092 18.676C175.801 19.3447 176.26 20.2269 176.561 21.1427C176.99 22.4428 177.063 24.0806 177.063 25.4414C177.063 26.86 176.98 28.485 176.566 29.8487C176.298 30.726 175.881 31.6983 175.187 32.3254C174.584 32.8718 173.855 33.2148 173.07 33.4123C172.673 33.5135 172.246 33.561 171.837 33.5923C171.263 33.6379 170.683 33.65 170.106 33.65H166.08V17.2169ZM162.442 14.3404V36.5114H170.74C172.015 36.5114 173.508 36.4354 174.731 36.0458C175.856 35.6868 176.964 35.1464 177.819 34.3157C178.929 33.2372 179.674 31.8733 180.175 30.4194C180.693 28.9069 180.858 27.2395 180.858 25.648C180.858 23.8916 180.697 21.9996 180.128 20.329C179.674 19.0006 178.996 17.7805 178.026 16.7586C177.116 15.7996 176.027 15.1348 174.757 14.7625C174.19 14.5965 173.577 14.5064 172.988 14.4476C172.16 14.3647 171.319 14.3404 170.486 14.3404H162.442ZM212.936 17.2169H215.569C216.376 17.2169 217.189 17.2281 217.995 17.2745C218.496 17.3038 219.041 17.3434 219.531 17.4515C220.437 17.6508 221.271 18.0343 221.95 18.676C222.657 19.3447 223.117 20.2269 223.418 21.1427C223.847 22.4428 223.92 24.0806 223.92 25.4414C223.92 26.86 223.838 28.485 223.422 29.8487C223.154 30.7269 222.738 31.6974 222.043 32.3254C221.441 32.8718 220.711 33.2148 219.927 33.4123C219.53 33.5135 219.102 33.561 218.695 33.5923C218.12 33.6379 217.539 33.65 216.963 33.65H212.936V17.2169ZM209.299 14.3404V36.5114H217.596C218.872 36.5114 220.364 36.4354 221.587 36.0458C222.713 35.6868 223.821 35.1464 224.676 34.3157C225.786 33.2372 226.531 31.8733 227.031 30.4194C227.551 28.9069 227.716 27.2395 227.716 25.648C227.716 23.8916 227.555 21.9996 226.984 20.329C226.529 19.0006 225.851 17.7805 224.882 16.7586C223.973 15.7996 222.884 15.1357 221.614 14.7625C221.047 14.5965 220.433 14.5064 219.845 14.4476C219.016 14.3647 218.175 14.3404 217.343 14.3404H209.299ZM236.366 17.2169H238.996C239.805 17.2169 240.617 17.2281 241.423 17.2745C241.923 17.3038 242.47 17.3434 242.959 17.4515C243.866 17.6508 244.699 18.0343 245.377 18.676C246.085 19.3447 246.544 20.2269 246.846 21.1427C247.275 22.4428 247.347 24.0806 247.347 25.4414C247.347 26.86 247.265 28.485 246.85 29.8487C246.582 30.7269 246.166 31.6983 245.472 32.3266C244.869 32.8718 244.14 33.2148 243.355 33.4123C242.957 33.5135 242.53 33.561 242.123 33.5934C241.548 33.6379 240.967 33.65 240.39 33.65H236.366V17.2169ZM232.727 14.3404V36.5114H241.024C242.301 36.5114 243.792 36.4354 245.015 36.0458C246.141 35.6868 247.249 35.1464 248.103 34.3157C249.214 33.2372 249.96 31.8733 250.459 30.4194C250.979 28.9069 251.144 27.2386 251.144 25.648C251.144 23.8916 250.983 21.9996 250.412 20.329C249.958 19.0006 249.28 17.7805 248.309 16.7586C247.4 15.7996 246.312 15.1357 245.044 14.7625C244.475 14.5965 243.862 14.5064 243.274 14.4476C242.445 14.3647 241.603 14.3404 240.771 14.3404H232.727ZM262.27 36.5114H265.892V27.1423L274 14.3404H269.856L264.204 24.0382L258.435 14.3404H254.193L262.27 27.1109V36.5114ZM70.5348 27.9731H75.9051V31.7035L75.7019 31.86C74.8933 32.4876 73.9779 32.9659 73.0277 33.3365C72.0199 33.73 70.9656 33.9513 69.8821 33.9513C67.8263 33.9513 66.0465 33.2525 64.6736 31.7075C63.1084 29.9459 62.7027 27.4348 62.7027 25.1561C62.7027 22.9818 63.1265 20.662 64.6583 19.0169C66.0596 17.5103 67.896 16.9003 69.9305 16.9003C71.255 16.9003 72.539 17.2009 73.6217 17.9919C74.515 18.6446 75.1362 19.5004 75.5125 20.5154L79.1712 19.8315C78.7045 18.1427 77.8072 16.7243 76.3715 15.6539C74.5615 14.3031 72.1323 13.9448 69.9305 13.9448C68.1266 13.9448 66.2306 14.207 64.6099 15.0427C62.7816 15.9846 61.3591 17.3374 60.3816 19.1483C59.3457 21.0687 58.9238 23.1772 58.9238 25.3466C58.9238 27.4256 59.3366 29.4288 60.2339 31.3057C61.0888 33.0905 62.3657 34.4737 64.0888 35.4467C65.9596 36.5021 68.0518 36.9068 70.1835 36.9068C72.0675 36.9068 73.8999 36.5395 75.6562 35.8578C77.0182 35.3295 78.4912 34.6082 79.589 33.6095V25.1117H70.5348V27.9731Z" fill="#18894D"/>
<path fill-rule="evenodd" clip-rule="evenodd" d="M110.326 36.5114H125.622V33.65H113.964V14.5296H110.326V36.5114ZM133.637 17.2169H136.271C137.077 17.2169 137.891 17.2281 138.697 17.2745C139.197 17.3038 139.743 17.3434 140.233 17.4515C141.138 17.6508 141.972 18.0343 142.651 18.676C143.359 19.3447 143.818 20.2269 144.12 21.1427C144.549 22.4428 144.621 24.0806 144.621 25.4414C144.621 26.86 144.539 28.485 144.123 29.8487C143.856 30.7269 143.44 31.6983 142.745 32.3254C142.142 32.8718 141.413 33.2148 140.628 33.4123C140.231 33.5135 139.804 33.561 139.396 33.5923C138.822 33.6379 138.241 33.65 137.665 33.65H133.637V17.2169ZM130 14.3404V36.5114H138.297C139.574 36.5114 141.066 36.4354 142.289 36.0458C143.414 35.6868 144.523 35.1464 145.378 34.3157C146.488 33.2372 147.233 31.8733 147.733 30.4194C148.252 28.9069 148.417 27.2395 148.417 25.648C148.417 23.8916 148.256 21.9996 147.686 20.329C147.231 19.0006 146.553 17.7805 145.584 16.7586C144.673 15.7996 143.585 15.1348 142.316 14.7625C141.748 14.5965 141.134 14.5064 140.547 14.4476C139.718 14.3647 138.877 14.3404 138.044 14.3404H130ZM166.08 17.2169H168.713C169.519 17.2169 170.332 17.2281 171.138 17.2745C171.638 17.3038 172.184 17.3434 172.675 17.4515C173.581 17.6508 174.413 18.0343 175.092 18.676C175.801 19.3447 176.26 20.2269 176.561 21.1427C176.99 22.4428 177.063 24.0806 177.063 25.4414C177.063 26.86 176.98 28.485 176.566 29.8487C176.298 30.726 175.881 31.6983 175.187 32.3254C174.584 32.8718 173.855 33.2148 173.07 33.4123C172.673 33.5135 172.246 33.561 171.837 33.5923C171.263 33.6379 170.683 33.65 170.106 33.65H166.08V17.2169ZM162.442 14.3404V36.5114H170.74C172.015 36.5114 173.508 36.4354 174.731 36.0458C175.856 35.6868 176.964 35.1464 177.819 34.3157C178.929 33.2372 179.674 31.8733 180.175 30.4194C180.693 28.9069 180.858 27.2395 180.858 25.648C180.858 23.8916 180.697 21.9996 180.128 20.329C179.674 19.0006 178.996 17.7805 178.026 16.7586C177.116 15.7996 176.027 15.1348 174.757 14.7625C174.19 14.5965 173.577 14.5064 172.988 14.4476C172.16 14.3647 171.319 14.3404 170.486 14.3404H162.442ZM212.936 17.2169H215.569C216.376 17.2169 217.189 17.2281 217.995 17.2745C218.496 17.3038 219.041 17.3434 219.531 17.4515C220.437 17.6508 221.271 18.0343 221.95 18.676C222.657 19.3447 223.117 20.2269 223.418 21.1427C223.847 22.4428 223.92 24.0806 223.92 25.4414C223.92 26.86 223.838 28.485 223.422 29.8487C223.154 30.7269 222.738 31.6974 222.043 32.3254C221.441 32.8718 220.711 33.2148 219.927 33.4123C219.53 33.5135 219.102 33.561 218.695 33.5923C218.12 33.6379 217.539 33.65 216.963 33.65H212.936V17.2169ZM209.299 14.3404V36.5114H217.596C218.872 36.5114 220.364 36.4354 221.587 36.0458C222.713 35.6868 223.821 35.1464 224.676 34.3157C225.786 33.2372 226.531 31.8733 227.031 30.4194C227.551 28.9069 227.716 27.2395 227.716 25.648C227.716 23.8916 227.555 21.9996 226.984 20.329C226.529 19.0006 225.851 17.7805 224.882 16.7586C223.973 15.7996 222.884 15.1357 221.614 14.7625C221.047 14.5965 220.433 14.5064 219.845 14.4476C219.016 14.3647 218.175 14.3404 217.343 14.3404H209.299ZM236.366 17.2169H238.996C239.805 17.2169 240.617 17.2281 241.423 17.2745C241.923 17.3038 242.47 17.3434 242.959 17.4515C243.866 17.6508 244.699 18.0343 245.377 18.676C246.085 19.3447 246.544 20.2269 246.846 21.1427C247.275 22.4428 247.347 24.0806 247.347 25.4414C247.347 26.86 247.265 28.485 246.85 29.8487C246.582 30.7269 246.166 31.6983 245.472 32.3266C244.869 32.8718 244.14 33.2148 243.355 33.4123C242.957 33.5135 242.53 33.561 242.123 33.5934C241.548 33.6379 240.967 33.65 240.39 33.65H236.366V17.2169ZM232.727 14.3404V36.5114H241.024C242.301 36.5114 243.792 36.4354 245.015 36.0458C246.141 35.6868 247.249 35.1464 248.103 34.3157C249.214 33.2372 249.96 31.8733 250.459 30.4194C250.979 28.9069 251.144 27.2386 251.144 25.648C251.144 23.8916 250.983 21.9996 250.412 20.329C249.958 19.0006 249.28 17.7805 248.309 16.7586C247.4 15.7996 246.312 15.1357 245.044 14.7625C244.475 14.5965 243.862 14.5064 243.274 14.4476C242.445 14.3647 241.603 14.3404 240.771 14.3404H232.727ZM262.27 36.5114H265.892V27.1423L274 14.3404H269.856L264.204 24.0382L258.435 14.3404H254.193L262.27 27.1109V36.5114ZM70.5348 27.9731H75.9051V31.7035L75.7019 31.86C74.8933 32.4876 73.9779 32.9659 73.0277 33.3365C72.0199 33.73 70.9656 33.9513 69.8821 33.9513C67.8263 33.9513 66.0465 33.2525 64.6736 31.7075C63.1084 29.9459 62.7027 27.4348 62.7027 25.1561C62.7027 22.9818 63.1265 20.662 64.6583 19.0169C66.0596 17.5103 67.896 16.9003 69.9305 16.9003C71.255 16.9003 72.539 17.2009 73.6217 17.9919C74.515 18.6446 75.1362 19.5004 75.5125 20.5154L79.1712 19.8315C78.7045 18.1427 77.8072 16.7243 76.3715 15.6539C74.5615 14.3031 72.1323 13.9448 69.9305 13.9448C68.1266 13.9448 66.2306 14.207 64.6099 15.0427C62.7816 15.9846 61.3591 17.3374 60.3816 19.1483C59.3457 21.0687 58.9238 23.1772 58.9238 25.3466C58.9238 27.4256 59.3366 29.4288 60.2339 31.3057C61.0888 33.0905 62.3657 34.4737 64.0888 35.4467C65.9596 36.5021 68.0518 36.9068 70.1835 36.9068C72.0675 36.9068 73.8999 36.5395 75.6562 35.8578C77.0182 35.3295 78.4912 34.6082 79.589 33.6095V25.1117H70.5348V27.9731Z" stroke="#18894D" stroke-width="0.634884" mask="url(#path-2-outside-1_316_46)"/>
<path d="M194.085 14.4139L205.422 36.2919L205.542 36.5233H201.272L201.229 36.4364L193.987 22.2118L186.66 36.4374L186.615 36.5233H182.347L182.467 36.2919L193.804 14.4139L193.944 14.1425L194.085 14.4139Z" fill="#18894D" stroke="#18894D" stroke-width="0.317442"/>
<path d="M89.486 14.2382C88.3166 14.7295 87.2988 15.4694 86.4161 16.3749C85.4804 17.3372 84.726 18.4323 84.1816 19.6578C83.3306 21.5763 83.0801 23.8027 83.0801 25.8812C83.0801 29.2114 83.8632 32.4648 86.2371 34.9161C88.5307 37.284 91.5163 38.1661 94.7654 38.1661C98.0056 38.1661 100.948 37.2607 103.226 34.8997C105.614 32.4209 106.385 29.1116 106.385 25.7616C106.385 22.3885 105.613 19.0519 103.202 16.5634C100.909 14.1978 97.953 13.2867 94.6973 13.2867C92.9206 13.2867 91.1322 13.5465 89.486 14.2382Z" fill="url(#paint0_linear_316_46)"/>
<defs>
<linearGradient id="paint0_linear_316_46" x1="98.7298" y1="18.9286" x2="89.854" y2="35.5984" gradientUnits="userSpaceOnUse">
<stop stop-color="#B78D38"/>
<stop offset="0.429" stop-color="#EFE07B"/>
<stop offset="1" stop-color="#B5822B"/>
</linearGradient>
</defs>
</svg>
