<svg width="38" height="33" viewBox="0 0 38 33" fill="none" xmlns="http://www.w3.org/2000/svg">
<path d="M4.9999 0.25293H32.9999C33.5666 0.25293 34.0419 0.44493 34.4259 0.82893C34.8099 1.21293 35.0012 1.6876 34.9999 2.25293C34.9986 2.81826 34.8066 3.29359 34.4239 3.67893C34.0412 4.06426 33.5666 4.25559 32.9999 4.25293H4.9999C4.43323 4.25293 3.95857 4.06093 3.5759 3.67693C3.19324 3.29293 3.00124 2.81826 2.9999 2.25293C2.99857 1.6876 3.19057 1.21293 3.5759 0.82893C3.96124 0.44493 4.4359 0.25293 4.9999 0.25293ZM4.9999 32.2529C4.43323 32.2529 3.95857 32.0609 3.5759 31.6769C3.19324 31.2929 3.00124 30.8183 2.9999 30.2529V20.2529H2.6499C2.01657 20.2529 1.4999 20.0109 1.0999 19.5269C0.699902 19.0429 0.566569 18.4849 0.699902 17.8529L2.6999 7.85293C2.7999 7.38626 3.03323 7.00293 3.3999 6.70293C3.76657 6.40293 4.18323 6.25293 4.6499 6.25293H33.3499C33.8166 6.25293 34.2332 6.40293 34.5999 6.70293C34.9666 7.00293 35.1999 7.38626 35.2999 7.85293L37.2999 17.8529C37.4332 18.4863 37.2999 19.0443 36.8999 19.5269C36.4999 20.0096 35.9832 20.2516 35.3499 20.2529H34.9999V30.2529C34.9999 30.8196 34.8079 31.2949 34.4239 31.6789C34.0399 32.0629 33.5652 32.2543 32.9999 32.2529C32.4346 32.2516 31.9599 32.0596 31.5759 31.6769C31.1919 31.2943 30.9999 30.8196 30.9999 30.2529V20.2529H22.9999V30.2529C22.9999 30.8196 22.8079 31.2949 22.4239 31.6789C22.0399 32.0629 21.5652 32.2543 20.9999 32.2529H4.9999ZM6.9999 28.2529H18.9999V20.2529H6.9999V28.2529Z" fill="black"/>
</svg>
