<svg width="26" height="24" viewBox="0 0 26 24" fill="none" xmlns="http://www.w3.org/2000/svg">
<path d="M25.7941 5.49548L24.8306 3.42625C24.7113 3.17166 24.5374 2.94651 24.3212 2.76686C24.1049 2.5872 23.8517 2.45746 23.5796 2.38689C20.5184 1.55288 17.007 1.04267 13.3866 0.979492C9.81852 1.03553 6.27092 1.53104 2.82403 2.45481C2.5634 2.53063 2.10848 2.91289 1.86839 3.41677L0.900112 5.49706C0.776078 5.75316 0.711293 6.03389 0.710564 6.31844V7.69266L0.708984 7.75743C0.708984 8.37662 1.21129 8.87892 1.83048 8.87892L1.8826 8.87734H5.85996C6.17339 8.86992 6.47148 8.74017 6.6905 8.51584C6.90952 8.2915 7.03209 7.99039 7.032 7.67687L7.02884 7.59315V6.25052C7.02896 6.07887 7.07211 5.91 7.15434 5.75933C7.23657 5.60867 7.35526 5.48102 7.49955 5.38807C9.30436 4.4282 11.3427 3.99524 13.3819 4.13863C15.4165 4.00179 17.4491 4.4327 19.2531 5.38333C19.479 5.53971 19.667 5.8572 19.667 6.21893V7.59631C19.6563 7.75772 19.6783 7.91962 19.7318 8.0723C19.7852 8.22498 19.869 8.36528 19.978 8.48478C20.087 8.60428 20.2191 8.70052 20.3662 8.7677C20.5134 8.83489 20.6726 8.87165 20.8343 8.87576H24.8164L24.8653 8.87734C25.1628 8.87734 25.448 8.75919 25.6584 8.54886C25.8687 8.33854 25.9868 8.05329 25.9868 7.75585L25.9853 7.68793V6.31686C25.9847 6.02821 25.9183 5.74349 25.791 5.48443L25.7941 5.49548Z" fill="white"/>
<path d="M19.6653 12.509C18.6373 11.1916 18.0806 9.56763 18.0842 7.89662L18.0857 7.76394V7.29639H16.5062V8.87596H10.1879V7.29639H8.60832V7.81764L8.6099 7.94401C8.61217 9.62172 8.0509 11.2516 7.01611 12.5722L2.29004 18.3534V23.0921H24.404V18.3534L19.6653 12.509ZM13.347 19.9329C12.0902 19.9329 10.8849 19.4337 9.99625 18.545C9.10757 17.6563 8.60832 16.451 8.60832 15.1942C8.60832 13.9375 9.10757 12.7321 9.99625 11.8435C10.8849 10.9548 12.0902 10.4555 13.347 10.4555C14.6038 10.4555 15.8091 10.9548 16.6978 11.8435C17.5865 12.7321 18.0857 13.9375 18.0857 15.1942C18.0857 16.451 17.5865 17.6563 16.6978 18.545C15.8091 19.4337 14.6038 19.9329 13.347 19.9329Z" fill="white"/>
<path d="M16.5064 15.1942C16.516 15.6149 16.4413 16.0332 16.2869 16.4247C16.1325 16.8161 15.9015 17.1728 15.6073 17.4738C15.3132 17.7747 14.9619 18.0138 14.5741 18.1771C14.1863 18.3404 13.7697 18.4246 13.3489 18.4247C12.9281 18.4248 12.5115 18.3409 12.1236 18.1778C11.7357 18.0146 11.3843 17.7757 11.09 17.4749C10.7957 17.1741 10.5645 16.8175 10.4099 16.4262C10.2553 16.0348 10.1804 15.6165 10.1897 15.1957C10.208 14.3703 10.5487 13.5848 11.1388 13.0075C11.729 12.4301 12.5217 12.1067 13.3473 12.1064C14.1729 12.1062 14.9658 12.4293 15.5563 13.0063C16.1467 13.5834 16.4878 14.3688 16.5064 15.1942Z" fill="white"/>
</svg>
