<svg width="26" height="23" viewBox="0 0 26 23" fill="none" xmlns="http://www.w3.org/2000/svg">
<path d="M25.7941 4.55994L24.8306 2.4907C24.7113 2.23611 24.5374 2.01096 24.3212 1.83131C24.1049 1.65165 23.8517 1.52192 23.5796 1.45134C20.5184 0.617329 17.007 0.107128 13.3866 0.0439453C9.81852 0.0999822 6.27092 0.595489 2.82403 1.51926C2.5634 1.59508 2.10848 1.97734 1.86839 2.48122L0.900112 4.56152C0.776078 4.81761 0.711293 5.09834 0.710564 5.38289V6.75712L0.708984 6.82188C0.708984 7.44107 1.21129 7.94337 1.83048 7.94337L1.8826 7.94179H5.85996C6.17339 7.93437 6.47148 7.80462 6.6905 7.58029C6.90952 7.35596 7.03209 7.05484 7.032 6.74132L7.02884 6.65761V5.31497C7.02896 5.14333 7.07211 4.97445 7.15434 4.82379C7.23657 4.67312 7.35526 4.54548 7.49955 4.45252C9.30436 3.49265 11.3427 3.05969 13.3819 3.20308C15.4165 3.06624 17.4491 3.49716 19.2531 4.44779C19.479 4.60416 19.667 4.92166 19.667 5.28338V6.66076C19.6563 6.82217 19.6783 6.98408 19.7318 7.13675C19.7852 7.28943 19.869 7.42974 19.978 7.54924C20.087 7.66874 20.2191 7.76497 20.3662 7.83216C20.5134 7.89934 20.6726 7.9361 20.8343 7.94022H24.8164L24.8653 7.94179C25.1628 7.94179 25.448 7.82364 25.6584 7.61332C25.8687 7.403 25.9868 7.11774 25.9868 6.8203L25.9853 6.75238V5.38131C25.9847 5.09266 25.9183 4.80794 25.791 4.54888L25.7941 4.55994Z" fill="black"/>
<path d="M19.6653 11.5734C18.6373 10.256 18.0806 8.63208 18.0842 6.96108L18.0857 6.82839V6.36084H16.5062V7.94041H10.1879V6.36084H8.60832V6.8821L8.6099 7.00846C8.61217 8.68617 8.0509 10.316 7.01611 11.6366L2.29004 17.4178V22.1565H24.404V17.4178L19.6653 11.5734ZM13.347 18.9974C12.0902 18.9974 10.8849 18.4981 9.99625 17.6095C9.10757 16.7208 8.60832 15.5155 8.60832 14.2587C8.60832 13.0019 9.10757 11.7966 9.99625 10.9079C10.8849 10.0192 12.0902 9.51998 13.347 9.51998C14.6038 9.51998 15.8091 10.0192 16.6978 10.9079C17.5865 11.7966 18.0857 13.0019 18.0857 14.2587C18.0857 15.5155 17.5865 16.7208 16.6978 17.6095C15.8091 18.4981 14.6038 18.9974 13.347 18.9974Z" fill="black"/>
<path d="M16.5064 14.2586C16.516 14.6793 16.4413 15.0977 16.2869 15.4891C16.1325 15.8806 15.9015 16.2373 15.6073 16.5382C15.3132 16.8391 14.9619 17.0783 14.5741 17.2416C14.1863 17.4049 13.7697 17.4891 13.3489 17.4892C12.9281 17.4893 12.5115 17.4053 12.1236 17.2422C11.7357 17.0791 11.3843 16.8401 11.09 16.5393C10.7957 16.2385 10.5645 15.882 10.4099 15.4906C10.2553 15.0992 10.1804 14.6809 10.1897 14.2602C10.208 13.4348 10.5487 12.6493 11.1388 12.0719C11.729 11.4945 12.5217 11.1711 13.3473 11.1709C14.1729 11.1707 14.9658 11.4937 15.5563 12.0708C16.1467 12.6479 16.4878 13.4332 16.5064 14.2586Z" fill="black"/>
</svg>
